<svg width="169" height="24" viewBox="0 0 169 24" fill="none" xmlns="http://www.w3.org/2000/svg">
<path d="M5.65909 19H0.545455L6.30682 1.54545H12.7841L18.5455 19H13.4318L9.61364 6.35227H9.47727L5.65909 19ZM4.70455 12.1136H14.3182V15.6591H4.70455V12.1136ZM20.3178 23.9091C19.778 23.9091 19.2638 23.8665 18.7751 23.7812C18.2865 23.7017 17.8575 23.5909 17.4882 23.4489L18.5109 20.108C18.8973 20.2443 19.2496 20.3324 19.5678 20.3722C19.8916 20.4119 20.1672 20.3892 20.3945 20.304C20.6274 20.2188 20.795 20.0568 20.8973 19.8182L20.9996 19.5795L16.3973 5.90909H21.3064L23.42 14.9773H23.5564L25.7041 5.90909H30.6473L25.8746 20.0909C25.6359 20.8125 25.2893 21.4602 24.8348 22.0341C24.3859 22.6136 23.795 23.071 23.0621 23.4062C22.3291 23.7415 21.4143 23.9091 20.3178 23.9091ZM30.7854 19V5.90909H35.4899V19H30.7854ZM33.1376 4.54545C32.5013 4.54545 31.9558 4.33523 31.5013 3.91477C31.0467 3.49432 30.8195 2.98864 30.8195 2.39773C30.8195 1.80682 31.0467 1.30114 31.5013 0.880681C31.9558 0.460227 32.5013 0.25 33.1376 0.25C33.7797 0.25 34.3251 0.460227 34.774 0.880681C35.2286 1.30114 35.4558 1.80682 35.4558 2.39773C35.4558 2.98864 35.2286 3.49432 34.774 3.91477C34.3251 4.33523 33.7797 4.54545 33.1376 4.54545ZM42.9597 19.2386C41.5619 19.2386 40.3574 18.9716 39.346 18.4375C38.3403 17.8977 37.5648 17.125 37.0193 16.1193C36.4795 15.108 36.2097 13.8977 36.2097 12.4886C36.2097 11.1364 36.4824 9.95455 37.0278 8.94318C37.5733 7.93182 38.3432 7.14489 39.3375 6.58239C40.3318 6.01989 41.5051 5.73864 42.8574 5.73864C43.846 5.73864 44.7409 5.89205 45.542 6.19886C46.3432 6.50568 47.0278 6.9517 47.596 7.53693C48.1642 8.11648 48.6017 8.82102 48.9085 9.65057C49.2153 10.4801 49.3688 11.4148 49.3688 12.4545V13.5455H37.6756V10.9545H45.0392C45.0335 10.5795 44.9369 10.25 44.7494 9.96591C44.5676 9.67614 44.3205 9.4517 44.008 9.29261C43.7011 9.12784 43.3517 9.04545 42.9597 9.04545C42.579 9.04545 42.2295 9.12784 41.9114 9.29261C41.5932 9.4517 41.3375 9.6733 41.1443 9.95739C40.9568 10.2415 40.8574 10.5739 40.846 10.9545V13.75C40.846 14.1705 40.9341 14.5455 41.1102 14.875C41.2864 15.2045 41.5392 15.4631 41.8688 15.6506C42.1983 15.8381 42.596 15.9318 43.0619 15.9318C43.3858 15.9318 43.6813 15.8864 43.9483 15.7955C44.221 15.7045 44.454 15.5739 44.6472 15.4034C44.8403 15.2273 44.9824 15.017 45.0733 14.7727H49.3688C49.221 15.6818 48.8716 16.4716 48.3205 17.142C47.7693 17.8068 47.0392 18.3239 46.1301 18.6932C45.2267 19.0568 44.1699 19.2386 42.9597 19.2386ZM50.0885 19V5.90909H54.6567V8.39773H54.793C55.0317 7.47727 55.4095 6.80398 55.9266 6.37784C56.4493 5.9517 57.0601 5.73864 57.7589 5.73864C57.9635 5.73864 58.1652 5.75568 58.3641 5.78977C58.5686 5.81818 58.7646 5.8608 58.9521 5.91761V9.93182C58.7192 9.85227 58.4322 9.79261 58.0913 9.75284C57.7504 9.71307 57.4578 9.69318 57.2135 9.69318C56.7533 9.69318 56.3385 9.7983 55.9692 10.0085C55.6055 10.2131 55.3186 10.5028 55.1084 10.8778C54.8982 11.2472 54.793 11.6818 54.793 12.1818V19H50.0885ZM62.3331 19.2045C61.4979 19.2045 60.7592 19.0682 60.1172 18.7955C59.4808 18.517 58.9808 18.0966 58.6172 17.5341C58.2536 16.9716 58.0717 16.2557 58.0717 15.3864C58.0717 14.6705 58.1939 14.0597 58.4382 13.554C58.6825 13.0426 59.0234 12.625 59.4609 12.3011C59.8984 11.9773 60.407 11.7301 60.9865 11.5597C61.5717 11.3892 62.2024 11.2784 62.8786 11.2273C63.6115 11.1705 64.1996 11.1023 64.6428 11.0227C65.0916 10.9375 65.4155 10.821 65.6143 10.6733C65.8132 10.5199 65.9126 10.3182 65.9126 10.0682V10.0341C65.9126 9.69318 65.782 9.43182 65.5206 9.25C65.2592 9.06818 64.924 8.97727 64.5149 8.97727C64.0661 8.97727 63.6996 9.0767 63.4155 9.27557C63.1371 9.46875 62.9695 9.76705 62.9126 10.1705H58.5831C58.6399 9.375 58.8928 8.64205 59.3416 7.97159C59.7962 7.29545 60.4581 6.75568 61.3274 6.35227C62.1967 5.94318 63.282 5.73864 64.5831 5.73864C65.5206 5.73864 66.3615 5.84943 67.1058 6.07102C67.8501 6.28693 68.4837 6.59091 69.0064 6.98295C69.5291 7.36932 69.9268 7.82386 70.1996 8.34659C70.478 8.86364 70.6172 9.42614 70.6172 10.0341V19H66.2195V17.1591H66.1172C65.8558 17.6477 65.5376 18.0426 65.1626 18.3438C64.7933 18.6449 64.37 18.8636 63.8928 19C63.4212 19.1364 62.9013 19.2045 62.3331 19.2045ZM63.8672 16.2386C64.2251 16.2386 64.5604 16.1648 64.8729 16.017C65.1911 15.8693 65.4496 15.6562 65.6484 15.3778C65.8473 15.0994 65.9467 14.7614 65.9467 14.3636V13.2727C65.8217 13.3239 65.6882 13.3722 65.5462 13.4176C65.4098 13.4631 65.2621 13.5057 65.103 13.5455C64.9496 13.5852 64.7848 13.6222 64.6087 13.6562C64.4382 13.6903 64.2592 13.7216 64.0717 13.75C63.7081 13.8068 63.4098 13.9006 63.1768 14.0312C62.9496 14.1562 62.7791 14.3125 62.6655 14.5C62.5575 14.6818 62.5036 14.8864 62.5036 15.1136C62.5036 15.4773 62.6314 15.7557 62.8871 15.9489C63.1428 16.142 63.4695 16.2386 63.8672 16.2386ZM79.9168 1.54545V19H75.1781V1.54545H79.9168ZM85.7352 11.6364V19H81.0307V5.90909H85.4966V8.39773H85.633C85.917 7.56818 86.417 6.91761 87.133 6.44602C87.8545 5.97443 88.6955 5.73864 89.6557 5.73864C90.5818 5.73864 91.3858 5.9517 92.0676 6.37784C92.7551 6.7983 93.2864 7.37784 93.6614 8.11648C94.042 8.85511 94.2295 9.69886 94.2239 10.6477V19H89.5193V11.6364C89.525 10.9886 89.3602 10.4801 89.025 10.1108C88.6955 9.74148 88.2352 9.55682 87.6443 9.55682C87.258 9.55682 86.9199 9.64205 86.6301 9.8125C86.346 9.97727 86.1273 10.2159 85.9739 10.5284C85.8205 10.8352 85.7409 11.2045 85.7352 11.6364ZM95.3463 19V5.90909H100.051V19H95.3463ZM97.6986 4.54545C97.0622 4.54545 96.5168 4.33523 96.0622 3.91477C95.6077 3.49432 95.3804 2.98864 95.3804 2.39773C95.3804 1.80682 95.6077 1.30114 96.0622 0.880681C96.5168 0.460227 97.0622 0.25 97.6986 0.25C98.3406 0.25 98.8861 0.460227 99.3349 0.880681C99.7895 1.30114 100.017 1.80682 100.017 2.39773C100.017 2.98864 99.7895 3.49432 99.3349 3.91477C98.8861 4.33523 98.3406 4.54545 97.6986 4.54545ZM109.055 5.90909V9.31818H100.43V5.90909H109.055ZM102.1 2.77273H106.805V14.7898C106.805 14.9716 106.836 15.125 106.898 15.25C106.961 15.3693 107.058 15.4602 107.188 15.5227C107.319 15.5795 107.487 15.608 107.691 15.608C107.833 15.608 107.998 15.5909 108.185 15.5568C108.379 15.5227 108.521 15.4943 108.612 15.4716L109.293 18.7784C109.083 18.8409 108.782 18.9176 108.39 19.0085C108.004 19.0994 107.543 19.1591 107.009 19.1875C105.93 19.2443 105.023 19.1335 104.29 18.8551C103.558 18.571 103.006 18.125 102.637 17.517C102.268 16.9091 102.089 16.1477 102.1 15.233V2.77273ZM109.774 19V5.90909H114.479V19H109.774ZM112.127 4.54545C111.49 4.54545 110.945 4.33523 110.49 3.91477C110.036 3.49432 109.809 2.98864 109.809 2.39773C109.809 1.80682 110.036 1.30114 110.49 0.880681C110.945 0.460227 111.49 0.25 112.127 0.25C112.769 0.25 113.314 0.460227 113.763 0.880681C114.218 1.30114 114.445 1.80682 114.445 2.39773C114.445 2.98864 114.218 3.49432 113.763 3.91477C113.314 4.33523 112.769 4.54545 112.127 4.54545ZM119.324 19.2045C118.488 19.2045 117.75 19.0682 117.108 18.7955C116.471 18.517 115.971 18.0966 115.608 17.5341C115.244 16.9716 115.062 16.2557 115.062 15.3864C115.062 14.6705 115.185 14.0597 115.429 13.554C115.673 13.0426 116.014 12.625 116.452 12.3011C116.889 11.9773 117.398 11.7301 117.977 11.5597C118.562 11.3892 119.193 11.2784 119.869 11.2273C120.602 11.1705 121.19 11.1023 121.633 11.0227C122.082 10.9375 122.406 10.821 122.605 10.6733C122.804 10.5199 122.903 10.3182 122.903 10.0682V10.0341C122.903 9.69318 122.773 9.43182 122.511 9.25C122.25 9.06818 121.915 8.97727 121.506 8.97727C121.057 8.97727 120.69 9.0767 120.406 9.27557C120.128 9.46875 119.96 9.76705 119.903 10.1705H115.574C115.631 9.375 115.883 8.64205 116.332 7.97159C116.787 7.29545 117.449 6.75568 118.318 6.35227C119.187 5.94318 120.273 5.73864 121.574 5.73864C122.511 5.73864 123.352 5.84943 124.096 6.07102C124.841 6.28693 125.474 6.59091 125.997 6.98295C126.52 7.36932 126.917 7.82386 127.19 8.34659C127.469 8.86364 127.608 9.42614 127.608 10.0341V19H123.21V17.1591H123.108C122.846 17.6477 122.528 18.0426 122.153 18.3438C121.784 18.6449 121.361 18.8636 120.883 19C120.412 19.1364 119.892 19.2045 119.324 19.2045ZM120.858 16.2386C121.216 16.2386 121.551 16.1648 121.863 16.017C122.182 15.8693 122.44 15.6562 122.639 15.3778C122.838 15.0994 122.937 14.7614 122.937 14.3636V13.2727C122.812 13.3239 122.679 13.3722 122.537 13.4176C122.4 13.4631 122.253 13.5057 122.094 13.5455C121.94 13.5852 121.775 13.6222 121.599 13.6562C121.429 13.6903 121.25 13.7216 121.062 13.75C120.699 13.8068 120.4 13.9006 120.167 14.0312C119.94 14.1562 119.77 14.3125 119.656 14.5C119.548 14.6818 119.494 14.8864 119.494 15.1136C119.494 15.4773 119.622 15.7557 119.878 15.9489C120.133 16.142 120.46 16.2386 120.858 16.2386ZM136.463 5.90909V9.31818H127.838V5.90909H136.463ZM129.508 2.77273H134.213V14.7898C134.213 14.9716 134.244 15.125 134.306 15.25C134.369 15.3693 134.465 15.4602 134.596 15.5227C134.727 15.5795 134.894 15.608 135.099 15.608C135.241 15.608 135.406 15.5909 135.593 15.5568C135.786 15.5227 135.928 15.4943 136.019 15.4716L136.701 18.7784C136.491 18.8409 136.19 18.9176 135.798 19.0085C135.411 19.0994 134.951 19.1591 134.417 19.1875C133.338 19.2443 132.431 19.1335 131.698 18.8551C130.965 18.571 130.414 18.125 130.045 17.517C129.676 16.9091 129.497 16.1477 129.508 15.233V2.77273ZM137.182 19V5.90909H141.887V19H137.182ZM139.535 4.54545C138.898 4.54545 138.353 4.33523 137.898 3.91477C137.444 3.49432 137.216 2.98864 137.216 2.39773C137.216 1.80682 137.444 1.30114 137.898 0.880681C138.353 0.460227 138.898 0.25 139.535 0.25C140.177 0.25 140.722 0.460227 141.171 0.880681C141.625 1.30114 141.853 1.80682 141.853 2.39773C141.853 2.98864 141.625 3.49432 141.171 3.91477C140.722 4.33523 140.177 4.54545 139.535 4.54545ZM156.277 5.90909L151.879 19H146.425L142.027 5.90909H146.97L149.084 14.5682H149.22L151.334 5.90909H156.277ZM162.289 19.2386C160.892 19.2386 159.687 18.9716 158.676 18.4375C157.67 17.8977 156.894 17.125 156.349 16.1193C155.809 15.108 155.539 13.8977 155.539 12.4886C155.539 11.1364 155.812 9.95455 156.358 8.94318C156.903 7.93182 157.673 7.14489 158.667 6.58239C159.662 6.01989 160.835 5.73864 162.187 5.73864C163.176 5.73864 164.071 5.89205 164.872 6.19886C165.673 6.50568 166.358 6.9517 166.926 7.53693C167.494 8.11648 167.931 8.82102 168.238 9.65057C168.545 10.4801 168.698 11.4148 168.698 12.4545V13.5455H157.005V10.9545H164.369C164.363 10.5795 164.267 10.25 164.079 9.96591C163.897 9.67614 163.65 9.4517 163.338 9.29261C163.031 9.12784 162.681 9.04545 162.289 9.04545C161.909 9.04545 161.559 9.12784 161.241 9.29261C160.923 9.4517 160.667 9.6733 160.474 9.95739C160.287 10.2415 160.187 10.5739 160.176 10.9545V13.75C160.176 14.1705 160.264 14.5455 160.44 14.875C160.616 15.2045 160.869 15.4631 161.198 15.6506C161.528 15.8381 161.926 15.9318 162.392 15.9318C162.715 15.9318 163.011 15.8864 163.278 15.7955C163.551 15.7045 163.784 15.5739 163.977 15.4034C164.17 15.2273 164.312 15.017 164.403 14.7727H168.698C168.551 15.6818 168.201 16.4716 167.65 17.142C167.099 17.8068 166.369 18.3239 165.46 18.6932C164.556 19.0568 163.5 19.2386 162.289 19.2386Z" fill="#01003B"/>
</svg>
